
          <svg xmlns="http://www.w3.org/2000/svg" xmlns:cc="http://creativecommons.org/ns#" xmlns:rdf="http://www.w3.org/1999/02/22-rdf-syntax-ns#" version="1.1" width="641.4500732421875" height="283.41668701171875">
            <defs>
              <style type="text/css">svg {
          background-color: #fff; }
        
        .root text,
        .root tspan {
          font: 12px Arial; }
        
        .root path {
          fill-opacity: 0;
          stroke-width: 2px;
          stroke: #000; }
        
        .root circle {
          fill: #6b6659;
          stroke-width: 2px;
          stroke: #000; }
        
        .anchor text, .any-character text {
          fill: #fff; }
        
        .anchor rect, .any-character rect {
          fill: #6b6659; }
        
        .escape text, .charset-escape text, .literal text {
          fill: #000; }
        
        .escape rect, .charset-escape rect {
          fill: #bada55; }
        
        .literal rect {
          fill: #dae9e5; }
        
        .charset .charset-box {
          fill: #cbcbba; }
        
        .subexp .subexp-label tspan,
        .charset .charset-label tspan,
        .match-fragment .repeat-label tspan {
          font-size: 10px; }
        
        .repeat-label {
          cursor: help; }
        
        .subexp .subexp-label tspan,
        .charset .charset-label tspan {
          dominant-baseline: text-after-edge; }
        
        .subexp .subexp-box {
          stroke: #908c83;
          stroke-dasharray: 6,2;
          stroke-width: 2px;
          fill-opacity: 0; }
        
        .quote {
          fill: #908c83; }
        </style>
            </defs>
            <metadata>
              <rdf:rdf>
                <cc:license rdf:about="http://creativecommons.org/licenses/by/3.0/">
                  <cc:permits rdf:resource="http://creativecommons.org/ns#Reproduction"></cc:permits>
                  <cc:permits rdf:resource="http://creativecommons.org/ns#Distribution"></cc:permits>
                  <cc:requires rdf:resource="http://creativecommons.org/ns#Notice"></cc:requires>
                  <cc:requires rdf:resource="http://creativecommons.org/ns#Attribution"></cc:requires>
                  <cc:permits rdf:resource="http://creativecommons.org/ns#DerivativeWorks"></cc:permits>
                </cc:license>
              </rdf:rdf>
            </metadata>
          <desc>Created with Snap</desc><g class="root" transform="matrix(1,0,0,1,15,10)"><g class="regexp match" transform="matrix(1,0,0,1,10,0)"><path d="M89.46666717529297,132.84993320617676H109.4667M184.80002824707032,132.84998090820312H209.8M239.98333435058595,132.84993320617676H259.9833M335.3166282470703,132.84998701171875H360.3167M381.65003396911624,132.84993320617676H401.65M476.9833282470703,132.84998245239257H501.9834"></path><g class="match-fragment escape" transform="matrix(1,0,0,1,0,120.5916)"><g class="label"><rect width="89.46666717529297" height="24.516666412353516" rx="3" ry="3"></rect><text x="0" y="0" transform="matrix(1,0,0,1,5,17.2583)"><tspan>word boundary</tspan></text></g></g><g class="match-fragment" transform="matrix(1,0,0,1,99.4667,0)"><path d="M10,132.84998090820312q-10,0 -10,10v110.56667308254242q0,10 10,10h75.33332824707031q10,0 10,-10v-110.56667308254242q0,-10 -10,-10M95.33332824707031,147.84998090820312l5,-5m-5,5l-5,-5"></path><g class="charset" transform="matrix(1,0,0,1,10,0)"><rect class="charset-box" rx="3" ry="3" transform="matrix(1,0,0,1,0,12.2833)" width="75.33332824707031" height="241.13336181640625"></rect><text x="0" y="0" class="charset-label" transform="matrix(1,0,0,1,0,12.2833)"><tspan>One of:</tspan></text><g transform="matrix(1,0,0,1,5,17.2833)"><g class="charset-range" transform="matrix(1,0,0,1,0,0)"><text x="0" y="0" transform="matrix(1,0,0,1,31,16.1667)">-</text><g class="literal" transform="matrix(1,0,0,1,0,0)"><g class="label"><rect width="26" height="24.516666412353516" rx="3" ry="3"></rect><text x="0" y="0" transform="matrix(1,0,0,1,5,17.2583)"><tspan class="quote">“</tspan><tspan>A</tspan><tspan class="quote">”</tspan></text></g></g><g class="literal" transform="matrix(1,0,0,1,40,0)"><g class="label"><rect width="25.333333015441895" height="24.516666412353516" rx="3" ry="3"></rect><text x="0" y="0" transform="matrix(1,0,0,1,5,17.2583)"><tspan class="quote">“</tspan><tspan>Z</tspan><tspan class="quote">”</tspan></text></g></g></g><g class="charset-range" transform="matrix(1,0,0,1,1.325,29.5167)"><text x="0" y="0" transform="matrix(1,0,0,1,29.6833,16.1667)">-</text><g class="literal" transform="matrix(1,0,0,1,0,0)"><g class="label"><rect width="24.68333339691162" height="24.516666412353516" rx="3" ry="3"></rect><text x="0" y="0" transform="matrix(1,0,0,1,5,17.2583)"><tspan class="quote">“</tspan><tspan>a</tspan><tspan class="quote">”</tspan></text></g></g><g class="literal" transform="matrix(1,0,0,1,38.6833,0)"><g class="label"><rect width="24" height="24.516666412353516" rx="3" ry="3"></rect><text x="0" y="0" transform="matrix(1,0,0,1,5,17.2583)"><tspan class="quote">“</tspan><tspan>z</tspan><tspan class="quote">”</tspan></text></g></g></g><g class="charset-range" transform="matrix(1,0,0,1,0.9833,59.0333)"><text x="0" y="0" transform="matrix(1,0,0,1,29.6833,16.1667)">-</text><g class="literal" transform="matrix(1,0,0,1,0,0)"><g class="label"><rect width="24.68333339691162" height="24.516666412353516" rx="3" ry="3"></rect><text x="0" y="0" transform="matrix(1,0,0,1,5,17.2583)"><tspan class="quote">“</tspan><tspan>0</tspan><tspan class="quote">”</tspan></text></g></g><g class="literal" transform="matrix(1,0,0,1,38.6833,0)"><g class="label"><rect width="24.68333339691162" height="24.516666412353516" rx="3" ry="3"></rect><text x="0" y="0" transform="matrix(1,0,0,1,5,17.2583)"><tspan class="quote">“</tspan><tspan>9</tspan><tspan class="quote">”</tspan></text></g></g></g><g class="literal" transform="matrix(1,0,0,1,22,88.55)"><g class="label"><rect width="21.33333396911621" height="24.516666412353516" rx="3" ry="3"></rect><text x="0" y="0" transform="matrix(1,0,0,1,5,17.2583)"><tspan class="quote">“</tspan><tspan>.</tspan><tspan class="quote">”</tspan></text></g></g><g class="literal" transform="matrix(1,0,0,1,20.325,118.0667)"><g class="label"><rect width="24.68333339691162" height="24.516666412353516" rx="3" ry="3"></rect><text x="0" y="0" transform="matrix(1,0,0,1,5,17.2583)"><tspan class="quote">“</tspan><tspan>_</tspan><tspan class="quote">”</tspan></text></g></g><g class="literal" transform="matrix(1,0,0,1,18.3333,147.5833)"><g class="label"><rect width="28.666667938232422" height="24.516666412353516" rx="3" ry="3"></rect><text x="0" y="0" transform="matrix(1,0,0,1,5,17.2583)"><tspan class="quote">“</tspan><tspan>%</tspan><tspan class="quote">”</tspan></text></g></g><g class="literal" transform="matrix(1,0,0,1,20.1583,177.1)"><g class="label"><rect width="25.016666412353516" height="24.516666412353516" rx="3" ry="3"></rect><text x="0" y="0" transform="matrix(1,0,0,1,5,17.2583)"><tspan class="quote">“</tspan><tspan>+</tspan><tspan class="quote">”</tspan></text></g></g><g class="literal" transform="matrix(1,0,0,1,21.6667,206.6167)"><g class="label"><rect width="22" height="24.516666412353516" rx="3" ry="3"></rect><text x="0" y="0" transform="matrix(1,0,0,1,5,17.2583)"><tspan class="quote">“</tspan><tspan>-</tspan><tspan class="quote">”</tspan></text></g></g></g></g></g><g class="match-fragment literal" transform="matrix(1,0,0,1,209.8,120.5916)"><g class="label"><rect width="30.183334350585938" height="24.516666412353516" rx="3" ry="3"></rect><text x="0" y="0" transform="matrix(1,0,0,1,5,17.2583)"><tspan class="quote">“</tspan><tspan>@</tspan><tspan class="quote">”</tspan></text></g></g><g class="match-fragment" transform="matrix(1,0,0,1,249.9833,44.275)"><path d="M10,88.57498701171875q-10,0 -10,10v66.29167918605805q0,10 10,10h75.33332824707031q10,0 10,-10v-66.29167918605805q0,-10 -10,-10M95.33332824707031,103.57498701171875l5,-5m-5,5l-5,-5"></path><g class="charset" transform="matrix(1,0,0,1,10,0)"><rect class="charset-box" rx="3" ry="3" transform="matrix(1,0,0,1,0,12.2833)" width="75.33332824707031" height="152.5833740234375"></rect><text x="0" y="0" class="charset-label" transform="matrix(1,0,0,1,0,12.2833)"><tspan>One of:</tspan></text><g transform="matrix(1,0,0,1,5,17.2833)"><g class="charset-range" transform="matrix(1,0,0,1,0,0)"><text x="0" y="0" transform="matrix(1,0,0,1,31,16.1667)">-</text><g class="literal" transform="matrix(1,0,0,1,0,0)"><g class="label"><rect width="26" height="24.516666412353516" rx="3" ry="3"></rect><text x="0" y="0" transform="matrix(1,0,0,1,5,17.2583)"><tspan class="quote">“</tspan><tspan>A</tspan><tspan class="quote">”</tspan></text></g></g><g class="literal" transform="matrix(1,0,0,1,40,0)"><g class="label"><rect width="25.333333015441895" height="24.516666412353516" rx="3" ry="3"></rect><text x="0" y="0" transform="matrix(1,0,0,1,5,17.2583)"><tspan class="quote">“</tspan><tspan>Z</tspan><tspan class="quote">”</tspan></text></g></g></g><g class="charset-range" transform="matrix(1,0,0,1,1.325,29.5167)"><text x="0" y="0" transform="matrix(1,0,0,1,29.6833,16.1667)">-</text><g class="literal" transform="matrix(1,0,0,1,0,0)"><g class="label"><rect width="24.68333339691162" height="24.516666412353516" rx="3" ry="3"></rect><text x="0" y="0" transform="matrix(1,0,0,1,5,17.2583)"><tspan class="quote">“</tspan><tspan>a</tspan><tspan class="quote">”</tspan></text></g></g><g class="literal" transform="matrix(1,0,0,1,38.6833,0)"><g class="label"><rect width="24" height="24.516666412353516" rx="3" ry="3"></rect><text x="0" y="0" transform="matrix(1,0,0,1,5,17.2583)"><tspan class="quote">“</tspan><tspan>z</tspan><tspan class="quote">”</tspan></text></g></g></g><g class="charset-range" transform="matrix(1,0,0,1,0.9833,59.0333)"><text x="0" y="0" transform="matrix(1,0,0,1,29.6833,16.1667)">-</text><g class="literal" transform="matrix(1,0,0,1,0,0)"><g class="label"><rect width="24.68333339691162" height="24.516666412353516" rx="3" ry="3"></rect><text x="0" y="0" transform="matrix(1,0,0,1,5,17.2583)"><tspan class="quote">“</tspan><tspan>0</tspan><tspan class="quote">”</tspan></text></g></g><g class="literal" transform="matrix(1,0,0,1,38.6833,0)"><g class="label"><rect width="24.68333339691162" height="24.516666412353516" rx="3" ry="3"></rect><text x="0" y="0" transform="matrix(1,0,0,1,5,17.2583)"><tspan class="quote">“</tspan><tspan>9</tspan><tspan class="quote">”</tspan></text></g></g></g><g class="literal" transform="matrix(1,0,0,1,22,88.55)"><g class="label"><rect width="21.33333396911621" height="24.516666412353516" rx="3" ry="3"></rect><text x="0" y="0" transform="matrix(1,0,0,1,5,17.2583)"><tspan class="quote">“</tspan><tspan>.</tspan><tspan class="quote">”</tspan></text></g></g><g class="literal" transform="matrix(1,0,0,1,21.6667,118.0667)"><g class="label"><rect width="22" height="24.516666412353516" rx="3" ry="3"></rect><text x="0" y="0" transform="matrix(1,0,0,1,5,17.2583)"><tspan class="quote">“</tspan><tspan>-</tspan><tspan class="quote">”</tspan></text></g></g></g></g></g><g class="match-fragment literal" transform="matrix(1,0,0,1,360.3167,120.5916)"><g class="label"><rect width="21.33333396911621" height="24.516666412353516" rx="3" ry="3"></rect><text x="0" y="0" transform="matrix(1,0,0,1,5,17.2583)"><tspan class="quote">“</tspan><tspan>.</tspan><tspan class="quote">”</tspan></text></g></g><g class="match-fragment" transform="matrix(1,0,0,1,391.65,73.7917)"><path d="M10,59.058282452392575q-10,0 -10,10v36.77498225612641q0,10 10,10h75.33332824707031q10,0 10,-10v-36.77498225612641q0,-10 -10,-10M95.33332824707031,74.05828245239258l5,-5m-5,5l-5,-5"></path><g class="charset" transform="matrix(1,0,0,1,10,0)"><rect class="charset-box" rx="3" ry="3" transform="matrix(1,0,0,1,0,12.2833)" width="75.33332824707031" height="93.54996490478516"></rect><text x="0" y="0" class="charset-label" transform="matrix(1,0,0,1,0,12.2833)"><tspan>One of:</tspan></text><g transform="matrix(1,0,0,1,5,17.2833)"><g class="charset-range" transform="matrix(1,0,0,1,0,0)"><text x="0" y="0" transform="matrix(1,0,0,1,31,16.1667)">-</text><g class="literal" transform="matrix(1,0,0,1,0,0)"><g class="label"><rect width="26" height="24.516666412353516" rx="3" ry="3"></rect><text x="0" y="0" transform="matrix(1,0,0,1,5,17.2583)"><tspan class="quote">“</tspan><tspan>A</tspan><tspan class="quote">”</tspan></text></g></g><g class="literal" transform="matrix(1,0,0,1,40,0)"><g class="label"><rect width="25.333333015441895" height="24.516666412353516" rx="3" ry="3"></rect><text x="0" y="0" transform="matrix(1,0,0,1,5,17.2583)"><tspan class="quote">“</tspan><tspan>Z</tspan><tspan class="quote">”</tspan></text></g></g></g><g class="literal" transform="matrix(1,0,0,1,22.1083,29.5167)"><g class="label"><rect width="21.116666793823242" height="24.516666412353516" rx="3" ry="3"></rect><text x="0" y="0" transform="matrix(1,0,0,1,5,17.2583)"><tspan class="quote">“</tspan><tspan>|</tspan><tspan class="quote">”</tspan></text></g></g><g class="charset-range" transform="matrix(1,0,0,1,1.325,59.0333)"><text x="0" y="0" transform="matrix(1,0,0,1,29.6833,16.1667)">-</text><g class="literal" transform="matrix(1,0,0,1,0,0)"><g class="label"><rect width="24.68333339691162" height="24.516666412353516" rx="3" ry="3"></rect><text x="0" y="0" transform="matrix(1,0,0,1,5,17.2583)"><tspan class="quote">“</tspan><tspan>a</tspan><tspan class="quote">”</tspan></text></g></g><g class="literal" transform="matrix(1,0,0,1,38.6833,0)"><g class="label"><rect width="24" height="24.516666412353516" rx="3" ry="3"></rect><text x="0" y="0" transform="matrix(1,0,0,1,5,17.2583)"><tspan class="quote">“</tspan><tspan>z</tspan><tspan class="quote">”</tspan></text></g></g></g></g></g><text x="0" y="0" class="repeat-label" transform="matrix(1,0,0,1,52.5167,128.1166)"><tspan>1…6 times</tspan><title><text x="0" y="0">repeats 2…7 times in total</text></title></text></g><g class="match-fragment escape" transform="matrix(1,0,0,1,501.9834,120.5916)"><g class="label"><rect width="89.46666717529297" height="24.516666412353516" rx="3" ry="3"></rect><text x="0" y="0" transform="matrix(1,0,0,1,5,17.2583)"><tspan>word boundary</tspan></text></g></g></g><path d="M10,132.84993320617676H0M601.450067175293,132.84993320617676H611.4500732421875"></path><circle cx="0" cy="132.84993320617676" r="5"></circle><circle cx="611.4500732421875" cy="132.84993320617676" r="5"></circle></g></svg>
        